<?xml version="1.0" encoding="iso-8859-1"?>
<!-- Generator: Adobe Illustrator 19.0.0, SVG Export Plug-In . SVG Version: 6.00 Build 0)  -->
<svg version="1.1" id="Layer_1" xmlns="http://www.w3.org/2000/svg" xmlns:xlink="http://www.w3.org/1999/xlink" x="0px" y="0px"
	 viewBox="0 0 511.254 511.254" style="enable-background:new 0 0 511.254 511.254;" xml:space="preserve">
<g>
	<path style="fill:#90BAE1;" d="M372.364,189.472c0,102.828-83.354,186.182-186.182,186.182S0,292.3,0,189.472
		S83.354,3.29,186.182,3.29S372.364,86.644,372.364,189.472"/>
	<g>
		<path style="fill:#556080;" d="M157.981,87.072c-2.383,0-4.766-0.912-6.582-2.728l-18.618-18.618c-3.64-3.64-3.64-9.523,0-13.163
			c3.64-3.64,9.523-3.64,13.163,0l18.618,18.618c3.64,3.64,3.64,9.523,0,13.163C162.747,86.16,160.364,87.072,157.981,87.072"/>
		<path style="fill:#556080;" d="M213.835,87.072c-2.383,0-4.766-0.912-6.582-2.728c-3.64-3.64-3.64-9.523,0-13.163l18.618-18.618
			c3.64-3.64,9.523-3.64,13.163,0c3.64,3.64,3.64,9.523,0,13.163l-18.618,18.618C218.602,86.16,216.219,87.072,213.835,87.072"/>
		<path style="fill:#556080;" d="M120.735,152.236c-1.769,0-3.565-0.503-5.157-1.564l-25.581-17.054H74.199
			c-5.139,0-9.309-4.17-9.309-9.309s4.17-9.309,9.309-9.309h21.439l30.273,20.182c4.273,2.849,5.427,8.63,2.579,12.912
			C126.693,150.783,123.742,152.236,120.735,152.236"/>
		<path style="fill:#556080;" d="M55.572,226.708c-1.769,0-3.565-0.503-5.157-1.564c-4.273-2.849-5.427-8.63-2.579-12.912
			l21.383-32.07h42.217c5.139,0,9.309,4.17,9.309,9.309c0,5.139-4.17,9.309-9.309,9.309H79.179l-15.853,23.785
			C61.529,225.256,58.578,226.708,55.572,226.708"/>
		<path style="fill:#556080;" d="M83.499,291.872c-1.769,0-3.565-0.503-5.157-1.564c-4.273-2.849-5.427-8.63-2.579-12.912
			l21.383-32.07h32.908c5.139,0,9.309,4.17,9.309,9.309c0,5.139-4.17,9.309-9.309,9.309h-22.947l-15.853,23.785
			C89.457,290.42,86.506,291.872,83.499,291.872"/>
		<path style="fill:#556080;" d="M251.081,152.236c-3.007,0-5.958-1.452-7.754-4.143c-2.849-4.282-1.694-10.063,2.579-12.912
			l30.273-20.182h21.439c5.139,0,9.309,4.17,9.309,9.309s-4.171,9.309-9.309,9.309H281.82l-25.581,17.054
			C254.646,151.733,252.85,152.236,251.081,152.236"/>
		<path style="fill:#556080;" d="M316.245,226.708c-3.007,0-5.958-1.452-7.754-4.143l-15.853-23.785h-32.256
			c-5.139,0-9.309-4.17-9.309-9.309c0-5.139,4.17-9.309,9.309-9.309h42.217l21.383,32.07c2.849,4.282,1.694,10.063-2.579,12.912
			C319.81,226.206,318.013,226.708,316.245,226.708"/>
		<path style="fill:#556080;" d="M288.317,291.872c-3.007,0-5.958-1.452-7.754-4.143l-15.853-23.785h-22.947
			c-5.139,0-9.309-4.17-9.309-9.309c0-5.139,4.17-9.309,9.309-9.309h32.908l21.383,32.07c2.849,4.282,1.694,10.063-2.579,12.912
			C291.883,291.369,290.086,291.872,288.317,291.872"/>
		<path style="fill:#556080;" d="M499.331,442.91l-89.591-89.591c-3.612-3.612-9.449-3.612-13.051,0l-0.233,0.223
			c-3.556,3.556-9.309,3.612-12.93,0.112l-51.042-49.282c-7.699,9.784-16.3,18.795-25.777,26.866l50.25,48.528
			c3.714,3.584,3.77,9.514,0.121,13.163c-3.603,3.603-3.603,9.439,0,13.042l91.08,91.089c15.016,15.006,39.647,14.522,54.039-1.452
			C515.687,480.621,513.593,457.172,499.331,442.91"/>
		<path style="fill:#556080;" d="M211.476,78.595c-14.336-13.47-36.799-13.47-51.135,0c-10.826,10.175-20.973,23.226-20.973,36.408
			c0,0,3.491,46.545,46.545,46.545s46.545-46.545,46.545-46.545C232.459,101.821,222.303,88.761,211.476,78.595"/>
	</g>
	<path style="fill:#F0C419;" d="M260.385,198.781c0-46.881-16.142-70.898-23.878-79.723c-1.164-1.331-2.588-2.346-4.161-3.025
		c-0.773,6.554-6.991,45.512-46.434,45.512s-45.661-38.959-46.434-45.512c-1.573,0.68-2.998,1.694-4.161,3.025
		c-7.736,8.825-23.878,32.842-23.878,79.723c0,0-1.164,36.073,37.236,74.473l5.669,5.669c17.436,17.436,45.698,17.436,63.134,0
		l5.669-5.669C261.548,234.854,260.385,198.781,260.385,198.781"/>
	<polygon style="fill:#363E51;" points="381.342,430.242 420.841,469.741 473.502,417.079 434.004,377.581 	"/>
</g>
<g>
</g>
<g>
</g>
<g>
</g>
<g>
</g>
<g>
</g>
<g>
</g>
<g>
</g>
<g>
</g>
<g>
</g>
<g>
</g>
<g>
</g>
<g>
</g>
<g>
</g>
<g>
</g>
<g>
</g>
</svg>
